<svg version="1.1" id="Layer_1" xmlns="http://www.w3.org/2000/svg" xmlns:xlink="http://www.w3.org/1999/xlink" x="0px" y="0px"
	 width="100%" viewBox="0 0 512 512" enable-background="new 0 0 512 512" xml:space="preserve">
<path fill="#76A7A3" opacity="1.000000" stroke="none" 
	d="
M476.000000,513.000000 
	C317.371918,513.000000 159.243835,513.000000 1.057880,513.000000 
	C1.057880,342.413574 1.057880,171.827118 1.057880,1.120334 
	C171.544724,1.120334 342.089569,1.120334 512.817200,1.120334 
	C512.817200,171.666489 512.817200,342.333252 512.817200,513.000000 
	C500.827057,513.000000 488.663544,513.000000 476.000000,513.000000 
M249.898651,233.315842 
	C249.796707,233.515167 249.834457,233.689209 250.081253,234.402100 
	C250.146347,234.770996 250.211441,235.139893 249.378784,235.701065 
	C247.248276,235.782578 245.117783,235.864075 242.696091,235.389389 
	C239.001083,234.290192 230.203934,239.942276 229.484100,243.877975 
	C227.796524,253.104782 224.349518,256.008240 215.077850,256.007080 
	C188.102097,256.003754 161.126312,256.017151 134.150635,255.967239 
	C131.503616,255.962341 128.847382,255.648712 126.212669,255.334015 
	C120.126289,254.607010 114.050507,253.791306 107.704536,252.977493 
	C106.681984,251.597244 105.499779,249.809036 104.125069,248.183640 
	C100.640053,244.063126 97.091606,239.995331 93.510231,235.958176 
	C92.885864,235.254349 92.010941,234.367294 91.194336,234.303848 
	C84.803627,233.807388 78.391006,233.092941 72.000534,233.220032 
	C63.956882,233.379959 58.826515,236.917816 55.471432,245.203003 
	C50.906345,256.476257 51.361103,267.401917 59.471802,276.464203 
	C61.920872,279.200623 64.676392,280.477081 68.788414,279.961517 
	C69.219597,280.221649 69.650772,280.481812 70.279633,281.435669 
	C75.581787,286.935150 82.835922,287.527252 89.643127,282.929749 
	C90.071533,282.918549 90.499931,282.907349 91.620682,282.782166 
	C94.390854,280.510193 97.161034,278.238190 99.959000,275.958954 
	C99.959000,275.958954 99.964569,275.930756 100.687622,275.809906 
	C103.789925,274.546661 106.892227,273.283417 110.916328,272.018494 
	C114.605957,272.017639 118.295578,272.016754 122.376862,272.677826 
	C124.239098,273.112213 126.090340,273.864502 127.965347,273.929321 
	C139.886719,274.341431 151.812958,274.746704 163.738525,274.775513 
	C165.827393,274.780579 167.920593,272.994476 170.841171,272.018127 
	C172.223846,272.020599 173.606506,272.023071 175.291473,272.697021 
	C176.697815,273.432892 178.104858,274.804413 179.510376,274.802856 
	C189.619629,274.791687 199.730072,274.295258 209.837173,274.367584 
	C217.556549,274.422791 225.702377,271.494843 232.826416,277.159454 
	C233.429932,277.639343 234.930069,276.991547 236.693954,276.934540 
	C237.149536,276.949554 237.605133,276.964600 238.001434,276.994598 
	C238.001434,276.994598 238.010315,276.934082 238.180862,277.617493 
	C241.595276,279.781128 244.801910,282.431458 248.471222,283.998016 
	C254.457611,286.553711 268.998016,283.517242 271.729767,278.827148 
	C274.708740,273.712616 279.080841,273.010559 284.000641,272.989655 
	C300.107727,272.921234 316.215576,272.924042 332.322540,273.009094 
	C335.629150,273.026550 338.933716,273.759186 342.238464,273.752869 
	C362.526642,273.714050 382.814667,273.561920 403.102631,273.431885 
	C404.716980,273.421539 406.330566,273.292877 408.655731,273.129822 
	C409.133942,273.119812 409.612152,273.109833 410.104797,273.643890 
	C410.126892,274.006073 410.148987,274.368286 410.227325,275.485748 
	C411.110657,277.000519 411.630432,279.039429 412.936218,279.945160 
	C421.601074,285.955353 431.294342,286.854401 440.907776,283.379120 
	C448.957581,280.468994 454.409546,274.771362 456.653992,265.739838 
	C458.588928,257.953735 457.200043,250.062012 450.459564,244.526215 
	C445.213654,236.238022 437.423615,232.192581 427.331238,230.473358 
	C423.684662,231.134583 419.670349,231.039108 416.460571,232.599075 
	C406.872040,237.259094 402.295929,245.632950 400.089905,255.996613 
	C371.320374,255.996124 342.550476,256.077576 313.781494,255.950317 
	C303.827332,255.906281 293.869537,255.463089 283.924622,254.974060 
	C277.817627,254.673767 273.544586,251.108643 272.275513,245.234680 
	C271.450897,241.417969 269.818512,241.026459 266.332642,242.743225 
	C261.430847,240.537064 256.529022,238.330917 251.201935,235.958572 
	C251.201935,235.958572 250.803391,235.735748 250.815231,235.200073 
	C250.561493,234.529358 250.307755,233.858643 249.898651,233.315842 
z"/>
<path fill="#138283" opacity="1.000000" stroke="none" 
	d="
M70.081955,280.741943 
	C69.650772,280.481812 69.219597,280.221649 68.308502,279.652161 
	C65.305710,277.185059 62.546047,275.247162 60.302513,272.830170 
	C52.224464,264.127563 52.491737,250.257614 60.709412,242.070023 
	C70.445457,232.369583 82.634857,231.995956 92.364204,240.627747 
	C97.722534,245.381607 99.969193,251.314285 100.895599,258.404053 
	C100.633644,260.421509 100.416023,262.082977 100.194550,264.034973 
	C100.500900,264.513916 100.811111,264.702332 101.110062,264.963379 
	C101.098801,265.036011 100.953346,265.014984 100.930618,265.249023 
	C100.907898,265.483093 100.919388,265.953308 100.906998,266.018005 
	C100.894608,266.082703 100.878242,266.213440 100.602043,266.360352 
	C94.432961,275.107178 86.922813,281.039490 75.542572,281.218658 
	C73.443291,281.019684 71.762619,280.880829 70.081955,280.741943 
M73.132034,257.004639 
	C74.925354,257.881195 76.656296,259.024353 78.550987,259.467590 
	C79.100792,259.596252 80.979561,257.392059 80.762932,256.825195 
	C80.096748,255.081970 78.999825,252.694214 77.542671,252.236404 
	C74.790092,251.371613 72.744377,252.870346 73.132034,257.004639 
z"/>
<path fill="#127574" opacity="1.000000" stroke="none" 
	d="
M427.917480,231.009018 
	C437.423615,232.192581 445.213654,236.238022 450.726440,245.177765 
	C451.422668,247.254318 451.915741,248.663620 452.270966,250.106873 
	C454.447418,258.950134 452.990143,267.131927 446.324860,273.472809 
	C438.826874,280.605865 429.912933,284.227264 419.526855,280.200348 
	C416.201263,278.910919 413.278290,276.583160 410.171082,274.730469 
	C410.148987,274.368286 410.126892,274.006073 410.318878,273.231201 
	C410.702484,272.522858 410.872009,272.227203 411.348267,271.788971 
	C411.469818,269.399323 411.284637,267.152222 411.050018,264.952576 
	C411.000580,265.000000 411.101685,264.905792 411.086151,264.487732 
	C410.774506,259.988647 410.478394,255.907639 410.376587,252.133728 
	C410.868469,254.001785 411.166077,255.562729 411.572205,257.692566 
	C412.294189,255.955276 412.820038,254.689926 413.522614,252.999344 
	C415.812164,257.467010 419.629547,257.958527 422.958405,256.378296 
	C424.880554,255.465836 425.689819,252.209061 427.187439,249.677795 
	C429.628967,243.891586 425.794098,243.031769 422.385071,242.084991 
	C424.374695,241.892654 425.937286,241.788193 427.917480,241.655823 
	C427.917480,237.842697 427.917480,234.425858 427.917480,231.009018 
z"/>
<path fill="#E9F1F1" opacity="1.000000" stroke="none" 
	d="
M411.041565,271.931519 
	C410.872009,272.227203 410.702484,272.522858 410.311646,272.959167 
	C409.612152,273.109833 409.133942,273.119812 408.107605,272.933014 
	C406.785400,271.798126 406.011292,270.860016 405.134125,269.598755 
	C404.007111,267.901978 402.983124,266.528320 401.494934,265.098785 
	C358.096771,264.976624 315.162750,264.910339 272.256897,264.471741 
	C272.566711,262.115845 272.848389,260.132355 273.538696,258.085327 
	C277.082062,257.726532 280.216248,257.181671 283.351746,257.173828 
	C322.590271,257.075897 361.828979,257.055725 401.421387,257.046600 
	C404.883972,259.686981 407.992828,262.296387 411.101685,264.905792 
	C411.101685,264.905792 411.000580,265.000000 411.006439,265.322021 
	C411.022034,267.739868 411.031799,269.835693 411.041565,271.931519 
z"/>
<path fill="#54D6CA" opacity="1.000000" stroke="none" 
	d="
M250.803391,235.735748 
	C250.803391,235.735748 251.201935,235.958572 251.401520,236.495056 
	C251.583527,251.248566 251.565948,265.465576 251.156982,279.754150 
	C246.513840,278.861847 242.262070,277.897980 238.010315,276.934082 
	C238.010315,276.934082 238.001434,276.994598 237.887634,276.741455 
	C237.162964,276.069977 236.552124,275.651611 235.762238,274.968323 
	C234.424225,273.466278 233.265259,272.229126 231.978958,270.768555 
	C231.576050,270.352875 231.300461,270.160645 231.052200,269.973267 
	C231.079529,269.978149 231.075043,269.922821 231.068939,269.557190 
	C230.637390,267.788361 230.211929,266.385101 229.716034,264.611267 
	C229.100235,261.847107 228.554855,259.453583 228.040588,256.656494 
	C229.430817,252.586960 230.058228,248.358490 232.334381,245.397400 
	C235.175613,241.701233 239.374542,239.048721 242.987274,235.945587 
	C245.117783,235.864075 247.248276,235.782578 249.951416,235.680420 
	C250.524033,235.659760 250.803391,235.735748 250.803391,235.735748 
z"/>
<path fill="#106A69" opacity="1.000000" stroke="none" 
	d="
M251.548370,279.682587 
	C251.565948,265.465576 251.583527,251.248566 251.614166,236.578156 
	C256.529022,238.330917 261.430847,240.537064 266.751984,243.229370 
	C269.157593,248.526611 271.143829,253.337723 273.130096,258.148834 
	C272.848389,260.132355 272.566711,262.115845 272.194336,264.805603 
	C272.080078,265.737762 272.056458,265.963654 271.846161,266.451843 
	C271.056061,268.071930 270.452606,269.429718 269.588440,270.998260 
	C267.807648,272.682281 266.469543,274.433197 264.730713,275.572632 
	C260.768280,278.169189 256.952240,281.584076 251.548370,279.682587 
z"/>
<path fill="#5D9491" opacity="1.000000" stroke="none" 
	d="
M251.156982,279.754150 
	C256.952240,281.584076 260.768280,278.169189 264.730713,275.572632 
	C266.469543,274.433197 267.807648,272.682281 269.778992,271.261536 
	C270.787201,271.612701 271.405548,272.245544 271.891144,272.156250 
	C275.347992,271.520660 278.769287,270.149719 282.217468,270.100403 
	C299.682098,269.850525 317.151398,269.911133 334.619080,269.902100 
	C358.158447,269.889984 381.697815,269.913605 405.237183,269.921906 
	C406.011292,270.860016 406.785400,271.798126 407.752014,272.977692 
	C406.330566,273.292877 404.716980,273.421539 403.102631,273.431885 
	C382.814667,273.561920 362.526642,273.714050 342.238464,273.752869 
	C338.933716,273.759186 335.629150,273.026550 332.322540,273.009094 
	C316.215576,272.924042 300.107727,272.921234 284.000641,272.989655 
	C279.080841,273.010559 274.708740,273.712616 271.729767,278.827148 
	C268.998016,283.517242 254.457611,286.553711 248.471222,283.998016 
	C244.801910,282.431458 241.595276,279.781128 238.095581,277.275787 
	C242.262070,277.897980 246.513840,278.861847 251.156982,279.754150 
z"/>
<path fill="#5F8789" opacity="1.000000" stroke="none" 
	d="
M174.989182,272.025513 
	C173.606506,272.023071 172.223846,272.020599 170.042145,271.860168 
	C158.495758,271.466187 147.748383,271.230103 136.642319,270.789612 
	C127.513779,270.395813 118.743935,270.206421 109.581177,270.019928 
	C106.460915,270.995026 103.733566,271.967194 100.868767,272.622681 
	C100.780289,270.275146 100.829269,268.244293 100.878242,266.213440 
	C100.878242,266.213440 100.894608,266.082703 101.382866,266.034515 
	C141.304108,266.024506 180.737076,266.075989 220.170044,266.060760 
	C222.106064,266.059998 224.041840,265.476196 226.340179,265.078308 
	C227.443970,265.025330 228.185318,265.057922 228.926544,265.390808 
	C228.631332,267.139771 228.336243,268.588440 227.677658,270.237518 
	C226.005310,270.624359 224.699615,270.946228 223.387161,270.976685 
	C207.255081,271.351044 191.121994,271.682770 174.989182,272.025513 
z"/>
<path fill="#6E9597" opacity="1.000000" stroke="none" 
	d="
M242.841675,235.667480 
	C239.374542,239.048721 235.175613,241.701233 232.334381,245.397400 
	C230.058228,248.358490 229.430817,252.586960 227.571945,256.675751 
	C188.994614,257.108765 150.916992,257.092133 112.839577,257.169373 
	C108.872452,257.177429 104.906456,257.741821 100.939934,258.048096 
	C99.969193,251.314285 97.722534,245.381607 92.364204,240.627747 
	C82.634857,231.995956 70.445457,232.369583 60.709412,242.070023 
	C52.491737,250.257614 52.224464,264.127563 60.302513,272.830170 
	C62.546047,275.247162 65.305710,277.185059 68.059898,279.598755 
	C64.676392,280.477081 61.920872,279.200623 59.471802,276.464203 
	C51.361103,267.401917 50.906345,256.476257 55.471432,245.203003 
	C58.826515,236.917816 63.956882,233.379959 72.000534,233.220032 
	C78.391006,233.092941 84.803627,233.807388 91.194336,234.303848 
	C92.010941,234.367294 92.885864,235.254349 93.510231,235.958176 
	C97.091606,239.995331 100.640053,244.063126 104.125069,248.183640 
	C105.499779,249.809036 106.681984,251.597244 107.704536,252.977493 
	C114.050507,253.791306 120.126289,254.607010 126.212669,255.334015 
	C128.847382,255.648712 131.503616,255.962341 134.150635,255.967239 
	C161.126312,256.017151 188.102097,256.003754 215.077850,256.007080 
	C224.349518,256.008240 227.796524,253.104782 229.484100,243.877975 
	C230.203934,239.942276 239.001083,234.290192 242.841675,235.667480 
z"/>
<path fill="#E9F7F8" opacity="1.000000" stroke="none" 
	d="
M411.086151,264.487732 
	C407.992828,262.296387 404.883972,259.686981 401.453491,256.790009 
	C401.098480,256.333282 401.065094,256.164154 401.031677,255.995010 
	C402.295929,245.632950 406.872040,237.259094 416.460571,232.599075 
	C419.670349,231.039108 423.684662,231.134583 427.624359,230.741180 
	C427.917480,234.425858 427.917480,237.842697 427.917480,241.655823 
	C425.937286,241.788193 424.374695,241.892654 422.017090,242.028442 
	C416.278839,242.846634 412.451630,245.057205 410.689148,250.304855 
	C410.385895,250.909592 410.284088,251.368103 410.182312,251.826630 
	C410.478394,255.907639 410.774506,259.988647 411.086151,264.487732 
M405.474640,248.502182 
	C405.474640,248.502182 405.513550,248.488205 405.474640,248.502182 
z"/>
<path fill="#5D9491" opacity="1.000000" stroke="none" 
	d="
M410.199219,275.108093 
	C413.278290,276.583160 416.201263,278.910919 419.526855,280.200348 
	C429.912933,284.227264 438.826874,280.605865 446.324860,273.472809 
	C452.990143,267.131927 454.447418,258.950134 452.270966,250.106873 
	C451.915741,248.663620 451.422668,247.254318 450.933777,245.439636 
	C457.200043,250.062012 458.588928,257.953735 456.653992,265.739838 
	C454.409546,274.771362 448.957581,280.468994 440.907776,283.379120 
	C431.294342,286.854401 421.601074,285.955353 412.936218,279.945160 
	C411.630432,279.039429 411.110657,277.000519 410.199219,275.108093 
z"/>
<path fill="#6E9597" opacity="1.000000" stroke="none" 
	d="
M175.140320,272.361267 
	C191.121994,271.682770 207.255081,271.351044 223.387161,270.976685 
	C224.699615,270.946228 226.005310,270.624359 228.056061,270.227417 
	C229.556992,269.985535 230.316010,269.954193 231.075043,269.922821 
	C231.075043,269.922821 231.079529,269.978149 231.208069,270.168091 
	C231.563400,270.605499 231.819962,270.816803 232.106293,270.991974 
	C233.265259,272.229126 234.424225,273.466278 235.780457,275.239136 
	C235.989700,276.139130 236.001678,276.503387 236.013672,276.867645 
	C234.930069,276.991547 233.429932,277.639343 232.826416,277.159454 
	C225.702377,271.494843 217.556549,274.422791 209.837173,274.367584 
	C199.730072,274.295258 189.619629,274.791687 179.510376,274.802856 
	C178.104858,274.804413 176.697815,273.432892 175.140320,272.361267 
z"/>
<path fill="#6E9597" opacity="1.000000" stroke="none" 
	d="
M400.560791,255.995819 
	C401.065094,256.164154 401.098480,256.333282 401.099762,256.759033 
	C361.828979,257.055725 322.590271,257.075897 283.351746,257.173828 
	C280.216248,257.181671 277.082062,257.726532 273.538696,258.085327 
	C271.143829,253.337723 269.157593,248.526611 267.043701,243.397278 
	C269.818512,241.026459 271.450897,241.417969 272.275513,245.234680 
	C273.544586,251.108643 277.817627,254.673767 283.924622,254.974060 
	C293.869537,255.463089 303.827332,255.906281 313.781494,255.950317 
	C342.550476,256.077576 371.320374,255.996124 400.560791,255.995819 
z"/>
<path fill="#6E9597" opacity="1.000000" stroke="none" 
	d="
M137.001007,270.994019 
	C147.748383,271.230103 158.495758,271.466187 169.627472,271.868927 
	C167.920593,272.994476 165.827393,274.780579 163.738525,274.775513 
	C151.812958,274.746704 139.886719,274.341431 127.965347,273.929321 
	C126.090340,273.864502 124.239098,273.112213 122.647499,272.336853 
	C127.612427,271.661896 132.306717,271.327942 137.001007,270.994019 
z"/>
<path fill="#5D8E8E" opacity="1.000000" stroke="none" 
	d="
M100.602043,266.360352 
	C100.829269,268.244293 100.780289,270.275146 100.739243,272.915710 
	C100.486298,274.327209 100.225433,275.128998 99.964569,275.930756 
	C99.964569,275.930756 99.959000,275.958954 99.597519,276.044983 
	C96.466805,278.386078 93.697571,280.641113 90.928337,282.896149 
	C90.499931,282.907349 90.071533,282.918549 89.004478,282.808838 
	C84.230949,282.218201 80.096069,281.748474 75.961189,281.278748 
	C86.922813,281.039490 94.432961,275.107178 100.602043,266.360352 
z"/>
<path fill="#5D8E8E" opacity="1.000000" stroke="none" 
	d="
M136.642319,270.789612 
	C132.306717,271.327942 127.612427,271.661896 122.451675,272.005859 
	C118.295578,272.016754 114.605957,272.017639 110.454796,271.685120 
	C109.986870,270.906830 109.980476,270.461914 109.974083,270.016998 
	C118.743935,270.206421 127.513779,270.395813 136.642319,270.789612 
z"/>
<path fill="#6E9597" opacity="1.000000" stroke="none" 
	d="
M75.542572,281.218628 
	C80.096069,281.748474 84.230949,282.218201 88.683502,282.825836 
	C82.835922,287.527252 75.581787,286.935150 70.180794,281.088806 
	C71.762619,280.880829 73.443291,281.019684 75.542572,281.218628 
z"/>
<path fill="#6E9597" opacity="1.000000" stroke="none" 
	d="
M109.581177,270.019928 
	C109.980476,270.461914 109.986870,270.906830 109.993896,271.685974 
	C106.892227,273.283417 103.789925,274.546661 100.326096,275.870331 
	C100.225433,275.128998 100.486298,274.327209 100.876694,273.232422 
	C103.733566,271.967194 106.460915,270.995026 109.581177,270.019928 
z"/>
<path fill="#6E9597" opacity="1.000000" stroke="none" 
	d="
M91.274506,282.839172 
	C93.697571,280.641113 96.466805,278.386078 99.583626,276.048615 
	C97.161034,278.238190 94.390854,280.510193 91.274506,282.839172 
z"/>
<path fill="#5D9491" opacity="1.000000" stroke="none" 
	d="
M236.353821,276.901093 
	C236.001678,276.503387 235.989700,276.139130 235.959503,275.504059 
	C236.552124,275.651611 237.162964,276.069977 237.917267,276.733978 
	C237.605133,276.964600 237.149536,276.949554 236.353821,276.901093 
z"/>
<path fill="#5D9491" opacity="1.000000" stroke="none" 
	d="
M250.809311,235.467911 
	C250.803391,235.735748 250.524033,235.659760 250.400269,235.584274 
	C250.211441,235.139893 250.146347,234.770996 250.057556,233.958557 
	C250.033859,233.514999 250.054016,233.187927 250.054016,233.187927 
	C250.307755,233.858643 250.561493,234.529358 250.809311,235.467911 
z"/>
<path fill="#6E9597" opacity="1.000000" stroke="none" 
	d="
M249.976334,233.251892 
	C250.054016,233.187927 250.033859,233.514999 250.022888,233.676498 
	C249.834457,233.689209 249.796707,233.515167 249.976334,233.251892 
z"/>
<path fill="#E7F0F1" opacity="1.000000" stroke="none" 
	d="
M100.895599,258.404053 
	C104.906456,257.741821 108.872452,257.177429 112.839577,257.169373 
	C150.916992,257.092133 188.994614,257.108765 227.540833,257.079285 
	C228.554855,259.453583 229.100235,261.847107 229.498657,264.609924 
	C229.351685,264.979218 228.926682,265.090546 228.926682,265.090515 
	C228.185318,265.057922 227.443970,265.025330 225.872406,265.030640 
	C183.679260,265.050690 142.316299,265.032837 100.953346,265.014984 
	C100.953346,265.014984 101.098801,265.036011 100.978790,264.753723 
	C100.693375,264.179413 100.473251,263.937103 100.198402,263.744476 
	C100.416023,262.082977 100.633644,260.421509 100.895599,258.404053 
z"/>
<path fill="#3D5256" opacity="1.000000" stroke="none" 
	d="
M100.930618,265.249023 
	C142.316299,265.032837 183.679260,265.050690 225.509979,265.116211 
	C224.041840,265.476196 222.106064,266.059998 220.170044,266.060760 
	C180.737076,266.075989 141.304108,266.024506 101.395256,265.969818 
	C100.919388,265.953308 100.907898,265.483093 100.930618,265.249023 
z"/>
<path fill="#4CC1B0" opacity="1.000000" stroke="none" 
	d="
M73.047386,256.614258 
	C72.744377,252.870346 74.790092,251.371613 77.542671,252.236404 
	C78.999825,252.694214 80.096748,255.081970 80.762932,256.825195 
	C80.979561,257.392059 79.100792,259.596252 78.550987,259.467590 
	C76.656296,259.024353 74.925354,257.881195 73.047386,256.614258 
z"/>
<path fill="#6E9597" opacity="1.000000" stroke="none" 
	d="
M100.194550,264.034973 
	C100.473251,263.937103 100.693375,264.179413 100.990051,264.681091 
	C100.811111,264.702332 100.500900,264.513916 100.194550,264.034973 
z"/>
<path fill="#2AA19F" opacity="1.000000" stroke="none" 
	d="
M410.376587,252.133728 
	C410.284088,251.368103 410.385895,250.909592 411.034363,250.196777 
	C415.958527,246.524368 420.227570,247.147446 424.551788,250.132843 
	C425.084869,250.500900 426.170441,250.068771 426.999969,250.007446 
	C425.689819,252.209061 424.880554,255.465836 422.958405,256.378296 
	C419.629547,257.958527 415.812164,257.467010 413.522614,252.999344 
	C412.820038,254.689926 412.294189,255.955276 411.572205,257.692566 
	C411.166077,255.562729 410.868469,254.001785 410.376587,252.133728 
z"/>
<path fill="#219193" opacity="1.000000" stroke="none" 
	d="
M427.187439,249.677795 
	C426.170441,250.068771 425.084869,250.500900 424.551788,250.132843 
	C420.227570,247.147446 415.958527,246.524368 411.235779,250.050537 
	C412.451630,245.057205 416.278839,242.846634 421.590057,242.116318 
	C425.794098,243.031769 429.628967,243.891586 427.187439,249.677795 
z"/>
<path fill="#E9F7F8" opacity="1.000000" stroke="none" 
	d="
M411.348267,271.788971 
	C411.031799,269.835693 411.022034,267.739868 411.055878,265.274597 
	C411.284637,267.152222 411.469818,269.399323 411.348267,271.788971 
z"/>
<path fill="#5C8285" opacity="1.000000" stroke="none" 
	d="
M405.134125,269.598755 
	C381.697815,269.913605 358.158447,269.889984 334.619080,269.902100 
	C317.151398,269.911133 299.682098,269.850525 282.217468,270.100403 
	C278.769287,270.149719 275.347992,271.520660 271.891144,272.156250 
	C271.405548,272.245544 270.787201,271.612701 270.039734,271.050842 
	C270.452606,269.429718 271.056061,268.071930 272.311981,266.416046 
	C312.860352,266.101410 352.756226,266.105011 392.652008,266.028992 
	C395.754913,266.023071 398.856781,265.459229 401.959137,265.154694 
	C402.983124,266.528320 404.007111,267.901978 405.134125,269.598755 
z"/>
<path fill="#3D5256" opacity="1.000000" stroke="none" 
	d="
M401.494934,265.098785 
	C398.856781,265.459229 395.754913,266.023071 392.652008,266.028992 
	C352.756226,266.105011 312.860352,266.101410 272.498657,266.153778 
	C272.056458,265.963654 272.080078,265.737762 272.166199,265.177979 
	C315.162750,264.910339 358.096771,264.976624 401.494934,265.098785 
z"/>
<path fill="#5D9491" opacity="1.000000" stroke="none" 
	d="
M228.926544,265.390808 
	C228.926682,265.090546 229.351685,264.979218 229.569061,264.980530 
	C230.211929,266.385101 230.637390,267.788361 231.068939,269.557190 
	C230.316010,269.954193 229.556992,269.985535 228.419556,270.027039 
	C228.336243,268.588440 228.631332,267.139771 228.926544,265.390808 
z"/>
<path fill="#5D9491" opacity="1.000000" stroke="none" 
	d="
M231.978958,270.768555 
	C231.819962,270.816803 231.563400,270.605499 231.180756,270.163208 
	C231.300461,270.160645 231.576050,270.352875 231.978958,270.768555 
z"/>
<path fill="#E9F1F1" opacity="1.000000" stroke="none" 
	d="
M405.494080,248.495193 
	C405.513550,248.488205 405.474640,248.502182 405.494080,248.495193 
z"/>
</svg>